# xmcd
#
# Track frame offsets:
#	150
#	14000
#	29500
#	43131
#	57440
#	68081
#	81780
#	93036
#	105352
#	118830
#	141389
#	157604
#	181838
#	201718
#	218832
#	236346
#	253670
#	267679
#	283608
#	301913
#	319049
#	336755
#
# Disc length: 4763 seconds
#
# Revision: 1
# Processed by: cddbd v1.5.1PL0 Copyright (c) Steve Scherf et al.
# Submitted via: audiograbber 1.83.01
#
DISCID=40129916
DTITLE=Kirsty MacColl - Croydon To Cuba - disc 1
DYEAR=1900
DGENRE=
TTITLE0=They Don't Know
TTITLE1=You Caught Me Out
TTITLE2=Keep Your Hands Off My Baby
TTITLE3=There's a Guy Works Down the Chip Shop Swears He's Elvis
TTITLE4=Hard to Believe
TTITLE5=See That Girl
TTITLE6=Queen of the High Teas
TTITLE7=I Want Out
TTITLE8=You Still Believe In Me
TTITLE9=Rhythm Of The Real Thing
TTITLE10=Berlin
TTITLE11=Camel Crossing
TTITLE12=Roman Gardens
TTITLE13=Sticked and Stoned
TTITLE14=Terry
TTITLE15=A New England
TTITLE16=Patrick
TTITLE17=He's On The Beach
TTITLE18=Innocence (single remix)
TTITLE19=Don't Come the Cowboy With Me Sonny Jim
TTITLE20=Closer To God
TTITLE21=Fairytale of New York
EXTD=
EXTT0=
EXTT1=
EXTT2=
EXTT3=
EXTT4=
EXTT5=
EXTT6=
EXTT7=
EXTT8=
EXTT9=
EXTT10=
EXTT11=
EXTT12=
EXTT13=
EXTT14=
EXTT15=
EXTT16=
EXTT17=
EXTT18=
EXTT19=
EXTT20=
EXTT21=
PLAYORDER=
